# xmcd
#
# Track frame offsets: 
#        150
#        19422
#        33387
#        45027
#        55047
#        69720
#        85707
#        102390
#        117002
#        137602
#        152420
#        168350
#        185077
#        202777
#
# Disc length: 2877 seconds
#
# Revision: 2
# Processed by: cddbd v1.5.1PL0 Copyright (c) Steve Scherf et al.
# Submitted via: ExactAudioCopy v0.95a3
#
DISCID=aa0b3b0e
DTITLE=Various Artist - Country Hot Hits #17
DYEAR=1900
DGENRE=country
TTITLE0=Travis Tritt - Lord Have Mercy On The Working Man
TTITLE1=Randy Travis - If I Didn't Have You
TTITLE2=Chris Ledoux w Garth Brooks - Whatcha Gonna Do With A Cowboy
TTITLE3=Ricky Van Shelton - Wear My Ring Around your Neck
TTITLE4=Reba McEntire - Greatest Man I Never Knew - The
TTITLE5=Shenandoah - Hey Mister (I Need This Job)
TTITLE6=Mark Collie - Even The Man In The Moon Is Cryin'
TTITLE7=Collin Raye - In This Life
TTITLE8=Suzzy Bogguss - Letting Go
TTITLE9=Dwight Yoakam and Patty Loveless - Send A Message To My Heart
TTITLE10=Boy Howdy - Our Love Was Meant To Be
TTITLE11=Paul Overstreet - Me And My Baby
TTITLE12=Wynnona - No One Else On Earth
TTITLE13=The Geezinslaws - Help, I'm White And I Can't Get Down
EXTD=
EXTT0=Tritt - Travis
EXTT1=Travis - Randy
EXTT2=Ledoux - Chris with Brooks - Garth
EXTT3=VanShelton - Ricky
EXTT4=McEntire - Reba
EXTT5=Shenandoah
EXTT6=Collie - Mark
EXTT7=Raye - Collin
EXTT8=Bogguss - Suzy
EXTT9=Yoakam - Dwight and Loveless - Patty
EXTT10=Boy Howdy
EXTT11=Overstreet - Paul
EXTT12=Judd - Wynonna
EXTT13=Geezinslaws - The
PLAYORDER=
